<svg width="17" height="18" viewBox="0 0 17 18" fill="none" xmlns="http://www.w3.org/2000/svg">
<path d="M1 16.5H16M9.98701 3.42643C9.98701 3.42643 9.98701 4.78861 11.3492 6.1508C12.7114 7.51299 14.0736 7.51299 14.0736 7.51299M4.59969 13.9901L7.46028 13.5814C7.87291 13.5225 8.2553 13.3313 8.55003 13.0365L15.4358 6.1508C16.1881 5.39848 16.1881 4.17874 15.4358 3.42642L14.0736 2.06424C13.3213 1.31192 12.1015 1.31192 11.3492 2.06424L4.46347 8.94997C4.16873 9.2447 3.97754 9.62709 3.91859 10.0397L3.50994 12.9003C3.41913 13.536 3.964 14.0809 4.59969 13.9901Z" stroke="#707B81" stroke-width="1.4" stroke-linecap="round"/>
</svg>
